# xmcd
#
# Track frame offsets: 
#        150
#        12739
#        25814
#        40821
#        51782
#        66839
#        82576
#        96166
#        113567
#        124074
#        131638
#        146091
#        157803
#        171814
#        207900
#        222259
#        234560
#        248354
#        258955
#
# Disc length: 3596 seconds
#
# Revision: 0
# Processed by: cddbd v1.5.2PL0 Copyright (c) Steve Scherf et al.
# Submitted via: ExactAudioCopy v0.99pb5
#
DISCID=fa0e0a13
DTITLE=Various Artist - The Blues Collection - I Hear You Knockin'
DYEAR=2008
DGENRE=Blues
TTITLE0=Shake the Boogie - Sonny Boy Williamson
TTITLE1=Evil Gal Blues - Dinah Washington
TTITLE2=He's A Jelly Roll Baker - Lonnie Johnson
TTITLE3=Them There Eyes - Billie Holliday
TTITLE4=My Happiness - Ella Fitzgerald
TTITLE5=Everyday I Have The Blues - Big Joe Turner
TTITLE6=Stairway To The Stars - Dinah Washington
TTITLE7=Nobody's Business But Mine - Mississippi John Hurt
TTITLE8=Please Keep Me In Your Dreams - Billie Holliday
TTITLE9=Terraplane Blues - Big Joe Williams
TTITLE10=I'm Making Believe - Ella Fitzgerald (With The Ink Spots)
TTITLE11=Boogie In The Dark - Jimmy Reed
TTITLE12=How Long Blues - Jimmy Witherspoon
TTITLE13=Joy Juke - Dinah Washington
TTITLE14=I Hear You Knockin' - Big Joe Turner
TTITLE15=People Will Say Were In Love - Ella Fitzgerald
TTITLE16=Walking Blues - Dinah Washington
TTITLE17=I Wished On The Moon - Billie Holliday
TTITLE18=Love In Vain - Robert Johnson
EXTD=
EXTT0=
EXTT1=
EXTT2=
EXTT3=
EXTT4=
EXTT5=
EXTT6=
EXTT7=
EXTT8=
EXTT9=
EXTT10=
EXTT11=
EXTT12=
EXTT13=
EXTT14=
EXTT15=
EXTT16=
EXTT17=
EXTT18=
PLAYORDER=
